<?xml version="1.0" encoding="UTF-8" standalone="no"?>
<svg
   version="1.0"
   width="438.000000pt"
   height="441.000000pt"
   viewBox="0 0 438.000000 441.000000"
   preserveAspectRatio="xMidYMid meet"
   id="svg11"
   sodipodi:docname="hops_empty_pb.svg"
   inkscape:version="1.3.2 (091e20e, 2023-11-25)"
   xmlns:inkscape="http://www.inkscape.org/namespaces/inkscape"
   xmlns:sodipodi="http://sodipodi.sourceforge.net/DTD/sodipodi-0.dtd"
   xmlns="http://www.w3.org/2000/svg"
   xmlns:svg="http://www.w3.org/2000/svg">
  <defs
     id="defs11" />
  <sodipodi:namedview
     id="namedview11"
     pagecolor="#ffffff"
     bordercolor="#000000"
     borderopacity="0.25"
     inkscape:showpageshadow="2"
     inkscape:pageopacity="0.0"
     inkscape:pagecheckerboard="0"
     inkscape:deskcolor="#d1d1d1"
     inkscape:document-units="pt"
     showgrid="false"
     inkscape:zoom="1.3877551"
     inkscape:cx="292.19853"
     inkscape:cy="294"
     inkscape:window-width="1850"
     inkscape:window-height="1016"
     inkscape:window-x="0"
     inkscape:window-y="0"
     inkscape:window-maximized="1"
     inkscape:current-layer="svg11" />
  <g
     transform="translate(0.000000,441.000000) scale(0.100000,-0.100000)"
     fill="#000000"
     stroke="none"
     id="g11"
     style="fill:#223648;fill-opacity:1">
    <path
       d="M1990 4289 c-370 -35 -740 -179 -1047 -407 -109 -82 -319 -290 -401 -399 -419 -555 -535 -1276 -310 -1933 346 -1012 1420 -1595 2462 -1335 685 171 1246 692 1466 1363 70 215 100 411 100 657 0 334 -71 630 -223 930 -385 759 -1198 1205 -2047 1124z m490 -125 c538 -75 1035 -391 1344 -854 387 -579 433 -1336 121 -1960 -225 -448 -627 -806 -1090 -970 -366 -129 -774 -148 -1150 -54 -794 200 -1383 889 -1465 1713 -89 905 469 1762 1334 2046 299 99 585 123 906 79z"
       id="path1"
       style="fill:#223648;fill-opacity:1" />
    <path
       d="M2130 2872 l0 -148 -31 -23 -31 -23 53 -20 c30 -11 61 -20 69 -20 8 0 39 9 69 20 l53 20 -31 23 -31 23 0 148 0 148 -60 0 -60 0 0 -148z"
       id="path2"
       style="fill:#223648;fill-opacity:1" />
    <path
       d="M1901 2618 c-77 -29 -155 -112 -214 -225 -26 -50 -47 -97 -47 -103 0 -9 35 -11 138 -8 125 4 143 6 200 33 80 36 142 103 166 179 26 83 20 107 -34 128 -61 23 -143 22 -209 -4z"
       id="path3"
       style="fill:#223648;fill-opacity:1" />
    <path
       d="M2275 2623 l-50 -18 3 -49 c6 -125 95 -225 234 -262 68 -18 278 -19 278 -2 0 29 -84 179 -129 229 -94 105 -219 143 -336 102z"
       id="path4"
       style="fill:#223648;fill-opacity:1" />
    <path
       d="M2166 2447 c-28 -59 -59 -96 -115 -137 l-34 -26 27 -56 c14 -30 53 -84 85 -119 l59 -64 57 55 c33 33 69 81 87 118 l32 64 -57 50 c-56 49 -81 84 -103 142 l-10 29 -28 -56z"
       id="path5"
       style="fill:#223648;fill-opacity:1" />
    <path
       d="M1905 2255 c-27 -7 -69 -14 -93 -14 -37 -1 -45 -5 -62 -33 -27 -45 -47 -112 -55 -193 l-8 -68 76 6 c75 7 156 31 203 62 17 11 24 25 24 46 0 16 9 47 20 68 l19 39 -21 51 c-24 55 -25 56 -103 36z"
       id="path6"
       style="fill:#223648;fill-opacity:1" />
    <path
       d="M2390 2258 c0 -7 -9 -31 -19 -52 -19 -36 -19 -38 -1 -69 10 -18 21 -51 25 -75 6 -37 12 -45 47 -63 46 -23 155 -49 211 -49 36 0 37 1 37 38 0 56 -36 188 -60 223 -17 23 -29 29 -58 29 -34 1 -59 5 -149 25 -25 6 -33 4 -33 -7z"
       id="path7"
       style="fill:#223648;fill-opacity:1" />
    <path
       d="M2039 2109 c-37 -70 0 -183 94 -284 l55 -60 47 45 c100 97 143 208 111 284 l-17 40 -69 -69 -70 -69 -69 68 c-69 68 -69 68 -82 45z"
       id="path8"
       style="fill:#223648;fill-opacity:1" />
    <path
       d="M1931 1955 c-36 -15 -58 -32 -64 -47 -10 -25 -3 -202 8 -231 6 -14 14 -17 34 -12 38 9 162 69 190 92 l25 20 -41 49 c-43 51 -83 120 -83 141 0 16 -3 16 -69 -12z"
       id="path9"
       style="fill:#223648;fill-opacity:1" />
    <path
       d="M2372 1938 c-11 -24 -39 -70 -64 -102 l-45 -60 27 -23 c37 -31 151 -83 186 -86 25 -2 29 2 36 38 11 60 9 194 -2 216 -6 10 -16 19 -23 19 -7 0 -30 9 -52 20 -22 11 -40 20 -42 20 -1 0 -11 -19 -21 -42z"
       id="path10"
       style="fill:#223648;fill-opacity:1" />
    <path
       d="M2100 1715 c-38 -28 -44 -38 -42 -62 6 -43 49 -125 93 -174 l39 -44 40 44 c40 43 83 123 94 173 5 23 0 31 -43 61 -46 33 -50 34 -71 20 -19 -13 -23 -13 -39 1 -22 20 -17 21 -71 -19z"
       id="path11"
       style="fill:#223648;fill-opacity:1" />
  </g>
</svg>
