<?xml version="1.0" encoding="UTF-8" standalone="no"?>
<svg
   version="1.0"
   width="438.000000pt"
   height="437.000000pt"
   viewBox="0 0 438.000000 437.000000"
   preserveAspectRatio="xMidYMid meet"
   id="svg1"
   sodipodi:docname="hops_filled_pr_white_hops.svg"
   inkscape:version="1.3.2 (091e20e, 2023-11-25)"
   xmlns:inkscape="http://www.inkscape.org/namespaces/inkscape"
   xmlns:sodipodi="http://sodipodi.sourceforge.net/DTD/sodipodi-0.dtd"
   xmlns="http://www.w3.org/2000/svg"
   xmlns:svg="http://www.w3.org/2000/svg">
  <defs
     id="defs1" />
  <sodipodi:namedview
     id="namedview1"
     pagecolor="#ffffff"
     bordercolor="#000000"
     borderopacity="0.25"
     inkscape:showpageshadow="2"
     inkscape:pageopacity="0.0"
     inkscape:pagecheckerboard="0"
     inkscape:deskcolor="#d1d1d1"
     inkscape:document-units="pt"
     inkscape:zoom="5.6568542"
     inkscape:cx="304.1443"
     inkscape:cy="287.79246"
     inkscape:window-width="1850"
     inkscape:window-height="1016"
     inkscape:window-x="0"
     inkscape:window-y="0"
     inkscape:window-maximized="1"
     inkscape:current-layer="svg1" />
  <g
     transform="translate(0.000000,437.000000) scale(0.100000,-0.100000)"
     fill="#000000"
     stroke="none"
     id="g1"
     style="fill:#000000">
    <path
       d="M1870 4164 c-770 -115 -1402 -669 -1605 -1410 -55 -200 -70 -313 -69 -534 1 -209 13 -315 60 -490 187 -711 752 -1256 1465 -1414 173 -38 302 -49 494 -43 504 16 957 211 1315 567 165 165 285 334 387 547 354 742 200 1639 -381 2218 -318 317 -712 510 -1156 565 -117 14 -396 11 -510 -6z m340 -1290 l0 -145 31 -26 31 -26 -63 -24 c-59 -22 -66 -23 -99 -9 -19 8 -45 18 -57 21 -31 9 -29 20 7 42 l30 17 0 148 0 148 60 0 60 0 0 -146z m-131 -254 l44 -20 -6 -51 c-18 -147 -127 -244 -302 -268 -92 -13 -215 -5 -215 14 0 20 40 106 75 160 44 68 110 130 169 160 65 32 169 34 235 5z m393 -13 c66 -39 141 -126 188 -218 22 -45 40 -87 40 -94 0 -20 -111 -28 -208 -16 -137 17 -226 69 -275 158 -29 54 -50 160 -34 170 66 41 219 41 289 0z m-296 -158 c25 -55 110 -149 135 -149 34 0 -33 -127 -108 -207 l-55 -58 -59 65 c-58 63 -109 148 -109 179 0 9 19 29 41 45 49 35 95 96 111 148 6 21 12 38 14 38 2 0 15 -27 30 -61z m337 -204 l67 -7 24 -52 c25 -53 46 -145 46 -204 l0 -35 -77 6 c-81 5 -171 33 -204 63 -11 9 -19 28 -19 42 0 14 -9 45 -21 69 l-21 43 22 53 22 53 48 -12 c26 -7 77 -15 113 -19z m-546 -25 c22 -51 22 -51 3 -93 -11 -23 -20 -54 -20 -68 0 -14 -8 -34 -19 -43 -32 -29 -120 -57 -202 -63 l-79 -6 0 49 c0 59 22 149 50 204 18 35 25 40 58 41 20 0 62 7 92 14 93 21 94 21 117 -35z m349 -156 c7 -47 -6 -99 -39 -154 -28 -47 -117 -140 -133 -140 -20 0 -114 117 -140 175 -32 67 -31 147 3 184 2 3 35 -26 74 -65 l71 -69 66 72 c75 81 85 81 98 -3z m-342 -131 c11 -25 39 -70 63 -100 24 -29 43 -55 43 -58 0 -3 -27 -23 -60 -44 -65 -42 -176 -85 -185 -71 -3 4 -10 43 -16 85 -10 74 -6 160 9 181 7 9 99 51 117 53 6 0 19 -20 29 -46z m440 22 c67 -30 71 -40 63 -174 -7 -135 -6 -134 -73 -111 -66 23 -148 67 -170 91 -15 16 -13 21 25 69 22 28 51 73 63 101 13 27 26 49 29 49 4 0 32 -11 63 -25z m-282 -222 c17 -15 19 -15 38 2 18 17 21 16 70 -20 57 -42 58 -47 21 -130 -21 -46 -100 -155 -113 -155 -4 0 -30 30 -58 68 -47 63 -80 136 -80 171 1 13 84 81 99 81 3 0 13 -7 23 -17z"
       id="path1"
       style="fill:#223648;opacity:0.97;fill-opacity:1;stroke:#223648;stroke-opacity:0.49160421" />
  </g>
  <path
     style="fill:#783b40;stroke-width:0.71466667;stroke:#223648;stroke-opacity:0.49160421;stroke-dasharray:none;fill-opacity:1"
     d="M 264.19935,545.44096 C 247.28499,544.24488 222.00537,539.04595 204.37188,533.13703 152.37303,515.7124 108.17166,483.28596 75.670808,438.72102 49.165151,402.37665 30.960867,354.68045 27.434587,312.33954 26.319066,298.94521 26.963115,258.40139 28.443179,248.84722 30.863755,233.22182 35.702417,214.09126 41.175768,198.50654 72.053435,110.58601 150.66618,44.632293 243.28615,28.942033 c 20.18786,-3.41992 56.94907,-4.128034 77.00928,-1.483394 77.31322,10.192598 146.76376,55.278194 188.13912,122.135311 20.47157,33.07934 33.46125,72.1313 37.52692,112.82027 2.01907,20.2068 0.67128,49.21869 -3.28056,70.61545 -8.52131,46.13762 -30.13247,90.68382 -60.48626,124.67785 -56.1428,62.87584 -132.86548,93.75332 -217.9953,87.73344 z m 25.50514,-156.10395 c 7.17698,-7.42493 16.37408,-24.8057 15.28699,-28.8895 -0.64715,-2.43113 -1.08279,-2.90227 -6.37693,-6.89674 -5.36002,-4.04418 -7.68939,-4.53686 -10.21814,-2.16121 l -1.60086,1.50393 -2.43985,-1.86096 c -1.34192,-1.02353 -2.94,-1.86096 -3.55129,-1.86096 -1.40462,0 -9.16991,5.80289 -11.54928,8.63061 -1.41196,1.67803 -1.70378,2.62484 -1.36473,4.42797 0.67438,3.5865 3.46148,10.1074 6.35788,14.87539 3.55889,5.85857 10.81335,14.90917 11.95037,14.90917 0.50466,0 2.08229,-1.20497 3.50584,-2.6777 z m -38.78402,-28.42926 c 8.69789,-2.583 26.48884,-12.56457 26.48884,-14.8615 0,-0.49086 -2.26174,-3.87562 -5.02609,-7.52168 -2.76435,-3.64606 -6.46983,-9.50387 -8.23441,-13.01737 -1.76458,-3.51348 -3.68226,-6.57003 -4.26151,-6.7923 -1.12993,-0.4336 -10.6612,3.16762 -14.39765,5.43988 -3.01824,1.8355 -3.77472,4.84455 -3.7761,15.02006 -9.8e-4,7.28247 1.52506,20.57054 2.5535,22.23459 0.55507,0.89812 2.411,0.75818 6.65342,-0.50168 z m 77.44114,0.0461 c 1.47819,-1.47818 2.08138,-7.26527 2.16949,-20.81426 0.0906,-13.9239 -0.0598,-14.2527 -8.36811,-18.30427 -9.2661,-4.51863 -8.99463,-4.57987 -12.85822,2.90076 -1.81925,3.52239 -5.4021,9.3211 -7.96189,12.88601 -5.6374,7.85098 -5.82244,9.2596 -1.61943,12.32765 5.87608,4.28934 22.45591,11.84809 26.36893,12.02161 0.65922,0.0292 1.68038,-0.42864 2.26923,-1.0175 z m -38.88609,-16.28617 c 4.75043,-3.75916 12.7076,-13.26916 15.41767,-18.42643 4.57224,-8.70099 5.49158,-15.70775 3.18865,-24.30224 -1.45967,-5.44742 -3.60489,-4.50031 -13.63755,6.02091 l -7.59983,7.96992 -9.02947,-8.728 c -4.96621,-4.8004 -9.46243,-8.72799 -9.99161,-8.72799 -2.07173,0 -3.6245,5.06268 -3.61362,11.78186 0.0133,8.18962 1.35305,12.13252 6.9821,20.54803 4.56021,6.81759 12.91844,16.22566 14.41506,16.22566 0.48625,0 2.22712,-1.06277 3.8686,-2.36172 z m -53.87614,-22.7338 c 10.80964,-1.36576 21.51293,-5.8033 23.49831,-9.7423 0.53666,-1.06473 1.18972,-3.33166 1.45124,-5.03762 0.26152,-1.70597 1.27018,-4.98986 2.24147,-7.29752 2.2398,-5.32153 2.22319,-8.02139 -0.0815,-13.25412 -3.28161,-7.45066 -3.92587,-7.67675 -14.93272,-5.24049 -3.53456,0.78235 -8.67573,1.61662 -11.42483,1.85394 -2.7491,0.23732 -5.75624,0.90583 -6.68253,1.48559 -4.1229,2.58045 -9.18179,18.51646 -9.88612,31.14232 l -0.43123,7.73011 5.2867,-0.46147 c 2.90769,-0.25382 7.84025,-0.78411 10.96125,-1.17844 z m 117.96709,-5.50433 c -0.54837,-8.36791 -3.11463,-19.00438 -6.28765,-26.0607 -1.26256,-2.80773 -2.53696,-5.38904 -2.83201,-5.73622 -0.29504,-0.3472 -4.97583,-1.19895 -10.40175,-1.89279 -5.42593,-0.69384 -11.90628,-1.79267 -14.40078,-2.44184 -2.4945,-0.64917 -5.00672,-1.08271 -5.58272,-0.96343 -0.57599,0.11929 -2.31451,3.2471 -3.86339,6.95068 l -2.81612,6.73379 2.5065,5.83576 c 1.37858,3.20967 2.83221,7.55317 3.2303,9.65225 0.88394,4.66105 2.43467,6.4025 7.87556,8.84423 7.30788,3.27959 18.35401,5.42634 30.96219,6.01732 l 2.07098,0.0971 z m -60.44801,-11.57238 c 9.14307,-10.19741 16.42321,-22.19826 16.42321,-27.07263 0,-1.57999 -0.40633,-2.10753 -1.91494,-2.48617 -2.36404,-0.59333 -9.81165,-8.09067 -13.64623,-13.73734 -1.56997,-2.31187 -3.83199,-6.35925 -5.02672,-8.99416 -1.19472,-2.6349 -2.46284,-4.79074 -2.81803,-4.79074 -0.35519,0 -1.05448,1.36563 -1.55396,3.03473 -2.16252,7.22638 -5.02673,11.46705 -12.95316,19.17801 -5.62619,5.47326 -7.78615,8.04851 -7.78575,9.28267 7.7e-4,2.3221 3.45919,9.33462 7.23935,14.67897 4.17123,5.89724 14.32691,17.36145 15.3871,17.36969 0.46663,0.004 3.45873,-2.90474 6.64913,-6.46303 z m -46.4774,-26.80895 c 15.64895,-3.20908 26.77637,-11.07229 32.3173,-22.83706 2.19227,-4.65471 4.13075,-12.5384 4.15098,-16.88171 0.011,-2.36398 -0.28845,-2.81641 -2.6653,-4.02703 -5.10914,-2.60227 -10.31021,-3.69254 -17.6728,-3.70463 -8.04066,-0.0132 -13.74874,1.2274 -19.18809,4.17039 -5.26455,2.84841 -15.60556,13.02878 -20.10821,19.79584 -4.41385,6.63361 -9.52426,17.0836 -10.10521,20.66359 -0.332,2.04586 -0.14815,2.46691 1.27429,2.91838 6.13146,1.94604 22.27097,1.89673 31.99704,-0.0978 z m 109.31401,0.89885 c 3.76773,-0.79025 3.92351,-0.91331 3.83456,-3.02894 -0.12144,-2.88782 -5.60174,-14.15139 -10.39177,-21.35799 -2.0881,-3.14155 -6.55137,-8.47565 -9.91837,-11.85353 -9.21818,-9.24801 -16.22408,-12.06787 -29.93782,-12.04994 -6.00121,0.008 -13.74892,1.44327 -17.07569,3.1636 -2.04286,1.05641 -2.20373,1.4166 -2.20373,4.93433 0,2.08709 0.63476,6.2766 1.41057,9.31 4.48512,17.53663 16.72296,27.36919 38.21934,30.70754 7.79778,1.21099 20.71001,1.29765 26.06291,0.17493 z m -59.08783,-50.41662 c 3.43638,-1.27102 6.24796,-2.55386 6.24796,-2.85076 0,-0.29691 -1.76728,-1.95004 -3.92729,-3.67363 l -3.92729,-3.13381 v -19.46554 -19.46554 h -8.56863 -8.56862 v 19.64303 19.64305 l -3.50102,2.15419 c -3.48858,2.14654 -4.90324,4.00478 -3.84143,5.04597 0.30742,0.30145 3.12954,1.52409 6.27137,2.71699 7.15957,2.71835 11.139,2.59505 19.81495,-0.61395 z"
     id="path2"
     transform="scale(0.75)" />
  <path
     style="opacity:0.97;fill:#ffffff;stroke:#223648;stroke-width:0.714667;stroke-opacity:0.491604"
     d="M 283.01287,387.36188 C 276.13866,379.53259 269,366.36815 269,361.52069 c 0,-2.23303 4.03216,-6.52998 9.47265,-10.09473 2.24526,-1.47115 2.60772,-1.42642 5.44623,0.67219 2.85615,2.11164 3.15322,2.14658 4.88975,0.57504 1.01687,-0.92026 2.48842,-1.66203 3.27011,-1.6484 1.95683,0.0341 10.87584,6.69327 11.64325,8.69311 1.42095,3.70292 -8.56315,23.02645 -15.04228,29.11327 l -2.39844,2.25321 z"
     id="path3"
     transform="scale(0.75)" />
  <path
     style="opacity:0.97;fill:#ffffff;stroke:#223648;stroke-width:0.714667;stroke-opacity:0.491604"
     d="m 244.5666,358.84662 c -1.03837,-3.39751 -1.94596,-27.19898 -1.15701,-30.34243 0.51972,-2.07071 2.10518,-3.31645 7.10771,-5.58471 3.54133,-1.60571 7.11719,-2.91948 7.94635,-2.91948 0.83595,0 2.82986,2.61946 4.47574,5.87993 1.6325,3.23397 5.23898,8.84265 8.01439,12.46374 2.77542,3.6211 5.04622,7.00322 5.04622,7.51583 0,2.18949 -21.08659,13.43242 -27.6081,14.72006 -2.65493,0.5242 -3.21267,0.27153 -3.8253,-1.73294 z"
     id="path4"
     transform="scale(0.75)" />
  <path
     style="opacity:0.97;fill:#ffffff;stroke:#223648;stroke-width:0.714667;stroke-opacity:0.491604"
     d="m 279.8339,340.09016 c -9.50692,-10.53345 -14.70998,-20.80268 -14.79001,-29.19094 -0.0477,-5.00262 1.68665,-11.16801 3.0085,-10.69466 0.45378,0.16249 4.93222,4.06746 9.9521,8.67771 l 9.12705,8.38227 8.18423,-8.64047 c 4.50133,-4.75226 8.75787,-8.63678 9.45898,-8.63227 4.25147,0.0274 4.17942,15.49372 -0.11305,24.26722 C 302.10231,329.49023 287.91572,346 285.98002,346 c -0.44672,0 -3.21247,-2.65943 -6.14612,-5.90984 z"
     id="path5"
     transform="scale(0.75)" />
  <path
     style="opacity:0.97;fill:#ffffff;stroke:#223648;stroke-width:0.714667;stroke-opacity:0.491604"
     d="m 321,359.56747 c -4.46397,-1.64733 -18.95194,-9.07941 -21.25,-10.90088 -2.52598,-2.00213 -2.19291,-3.70182 1.81078,-9.24057 1.95844,-2.70931 5.37411,-8.18852 7.59039,-12.17602 2.51706,-4.52866 4.65255,-7.23945 5.68922,-7.22188 0.91278,0.0155 4.33583,1.47796 7.60675,3.25 4.49533,2.43535 6.15869,3.95424 6.8137,6.22188 1.11032,3.84393 0.11197,26.93489 -1.27674,29.52971 -1.20832,2.25777 -2.13074,2.3288 -6.9841,0.53776 z"
     id="path6"
     transform="scale(0.75)" />
  <path
     style="opacity:0.97;fill:#ffffff;stroke:#223648;stroke-width:0.714667;stroke-opacity:0.491604"
     d="m 339,321.30843 c -6.26684,-1.05084 -14.77378,-3.55457 -18.64296,-5.48693 -4.18494,-2.09006 -5.57231,-4.14616 -6.96451,-10.3215 -0.37198,-1.65 -1.51247,-4.66957 -2.53443,-6.71016 -2.42407,-4.84027 -2.35794,-5.92595 0.78791,-12.93584 1.91247,-4.26156 3.09067,-5.77585 4.25,-5.46236 C 321.246,281.83832 340.14037,285 343.4358,285 c 0.16009,0 1.52095,2.74053 3.02414,6.09008 2.81379,6.26996 6.50367,21.907 6.52692,27.65992 L 353,322 l -5.75,-0.13618 c -3.1625,-0.0749 -6.875,-0.32483 -8.25,-0.55539 z"
     id="path7"
     transform="scale(0.75)" />
  <path
     style="opacity:0.97;fill:#ffffff;stroke:#223648;stroke-width:0.126336;stroke-opacity:0.491604"
     d="m 220.08742,320.34674 c 0.001,-7.6805 1.40991,-16.31918 3.92473,-24.069 1.4201,-4.37627 3.61795,-8.885 5.08755,-10.43675 1.09161,-1.15263 2.36275,-1.53499 6.19008,-1.86197 3.5714,-0.30511 7.17578,-0.89855 12.28546,-2.02273 5.45518,-1.20019 6.84891,-1.44224 8.48125,-1.47296 1.80667,-0.034 2.85921,0.44495 3.84787,1.75094 0.72393,0.9563 3.32294,6.83289 3.75418,8.48856 0.34254,1.31508 0.341,3.72499 -0.003,5.18571 -0.14693,0.62336 -0.67131,2.04635 -1.16526,3.16219 -1.49187,3.37006 -2.28292,5.98833 -2.61358,8.65051 -0.23945,1.92783 -0.95642,4.01622 -1.71321,4.99022 -2.37139,3.05201 -10.341,6.48348 -19.07269,8.21211 -2.35464,0.46616 -8.21794,1.14538 -13.08147,1.5154 -2.52791,0.19233 -4.89451,0.38315 -5.25911,0.42405 l -0.66291,0.0744 z"
     id="path8"
     transform="scale(0.75)" />
  <path
     style="opacity:0.97;fill:#ffffff;stroke:#223648;stroke-width:0.126336;stroke-opacity:0.491604"
     d="m 284.7674,309.22663 c -4.87429,-5.07891 -10.02139,-11.09701 -12.80622,-14.97329 -4.22505,-5.881 -7.97685,-13.32943 -7.61795,-15.12391 0.25686,-1.2843 3.14159,-4.59124 5.73323,-6.57235 2.5614,-1.958 6.50407,-5.94498 8.44616,-8.54109 2.99012,-3.99707 4.67391,-7.2232 6.16043,-11.80332 0.51281,-1.58002 1.05036,-3.09793 1.19455,-3.37313 l 0.26218,-0.50038 0.27287,0.41646 c 0.43904,0.67006 1.42332,2.68241 2.78866,5.70138 1.9683,4.35223 4.10834,7.68776 7.70843,12.0146 4.59955,5.52805 9.33962,9.6536 11.09158,9.6536 0.87308,0 1.09335,0.51805 1.00621,2.36649 -0.17374,3.68515 -6.51652,14.50929 -13.16746,22.47063 -1.79296,2.14623 -9.10836,9.81111 -9.36377,9.81111 -0.12343,0 -0.89244,-0.69606 -1.7089,-1.5468 z"
     id="path9"
     transform="scale(0.75)" />
  <path
     style="opacity:0.97;fill:#ffffff;stroke:#223648;stroke-width:0.126336;stroke-opacity:0.491604"
     d="m 223.97607,279.01404 c -4.79062,-0.32877 -8.03738,-0.82821 -9.45198,-1.45395 l -0.80107,-0.35435 v -0.91563 c 0,-3.00379 6.17383,-15.83434 10.74559,-22.33165 3.26108,-4.6346 10.19413,-11.94175 14.63249,-15.42204 1.63019,-1.27829 4.77751,-3.30699 6.50806,-4.19496 2.60491,-1.33662 6.07675,-2.35283 9.80906,-2.87112 2.70503,-0.37563 8.82097,-0.51392 11.69137,-0.26434 4.838,0.42065 7.15879,1.00539 11.24682,2.83372 3.6403,1.62808 3.81684,1.74036 4.12577,2.62401 0.23346,0.66778 0.21908,1.07334 -0.15015,4.23428 -1.04175,8.91822 -3.97855,16.2015 -8.89618,22.06254 -7.07718,8.43489 -18.76819,13.96714 -32.84277,15.54136 -4.71051,0.52687 -12.77891,0.77553 -16.61701,0.51213 z"
     id="path10"
     transform="scale(0.75)" />
  <path
     style="opacity:0.97;fill:#ffffff;stroke:#223648;stroke-width:0.126336;stroke-opacity:0.491604"
     d="m 337.99704,279.13198 c -11.13228,-0.6893 -20.57003,-3.10452 -27.84125,-7.12486 -7.49107,-4.1419 -12.92145,-10.26028 -16.06838,-18.10415 -2.03914,-5.08263 -3.30727,-10.95731 -3.31903,-15.3755 -0.008,-3.06079 0.0809,-3.25831 1.85558,-4.11675 6.9902,-3.38126 18.97,-4.25656 28.87777,-2.10996 2.34167,0.50734 4.08434,1.09795 6.17011,2.09112 3.83319,1.82523 6.92902,4.17743 11.39442,8.6574 7.8331,7.85866 12.97545,15.44779 17.9801,26.53518 1.95392,4.32874 2.5644,6.33234 2.2776,7.47504 -0.18823,0.74995 -2.14964,1.35222 -5.94735,1.8262 -2.44624,0.3053 -11.96469,0.45773 -15.37957,0.24628 z"
     id="path11"
     transform="scale(0.75)" />
  <path
     style="opacity:0.97;fill:#ffffff;stroke:#223648;stroke-width:0.126336;stroke-opacity:0.491604"
     d="m 283.99176,230.52006 c -1.57428,-0.17499 -1.99631,-0.29881 -4.68458,-1.37438 -1.21534,-0.48626 -3.3469,-1.2599 -4.7368,-1.7192 -2.62012,-0.86582 -3.57171,-1.42369 -3.57171,-2.09389 0,-0.75794 2.19969,-2.56951 5.08154,-4.18494 l 2.68057,-1.50261 0.008,-19.6664 0.008,-19.66641 h 7.86656 7.86656 l 0.009,19.31285 0.009,19.31286 3.70842,3.08515 c 2.03964,1.69683 3.83088,3.22045 3.98054,3.38583 0.29961,0.33106 -0.13289,0.52053 -7.35309,3.22116 -4.39161,1.64263 -7.7869,2.23288 -10.87177,1.88998 z"
     id="path12"
     transform="scale(0.75)" />
  <path
     style="opacity:0.97;fill:#ffffff;stroke:#223648;stroke-width:0.126336;stroke-opacity:0.491604"
     d="m 284.88336,309.08698 c -3.78559,-3.88946 -8.96054,-9.87766 -11.83348,-13.69312 -4.09493,-5.43834 -8.15773,-12.86743 -8.5187,-15.57699 -0.0923,-0.69289 -0.0277,-0.89105 0.61082,-1.87323 0.96353,-1.48211 3.09381,-3.68521 5.23796,-5.417 2.11683,-1.70973 5.92461,-5.4928 7.50026,-7.45159 1.67207,-2.07866 3.78932,-5.38631 4.86467,-7.59979 0.51959,-1.0695 1.43803,-3.37644 2.04098,-5.12653 0.60295,-1.75009 1.15626,-3.29011 1.22958,-3.42227 0.19379,-0.3493 0.6309,0.42794 2.58079,4.589 2.4052,5.13267 3.83242,7.51624 6.71422,11.21323 4.82115,6.18492 10.73742,11.56205 12.73177,11.57156 0.61435,0.003 0.78666,0.36089 0.78666,1.63424 0,0.83953 -0.14639,1.65143 -0.4797,2.66049 -0.97583,2.95418 -4.34757,8.97885 -7.70678,13.77056 -3.35438,4.78482 -6.0765,7.98894 -11.45561,13.484 l -2.76182,2.82136 z"
     id="path13"
     transform="scale(0.75)" />
  <path
     style="opacity:0.97;fill:#ffffff;stroke:#223648;stroke-width:0.126336;stroke-opacity:0.491604"
     d="m 284.5135,344.28188 c -1.29793,-1.17634 -4.89148,-5.05711 -6.80184,-7.3455 -6.76257,-8.10077 -11.05353,-16.40458 -12.00244,-23.227 -0.42175,-3.03228 -0.10778,-7.00907 0.80095,-10.14489 0.45765,-1.57928 1.06934,-2.86733 1.36168,-2.86733 0.36306,0 5.17025,4.24057 13.67711,12.06501 3.03908,2.79528 5.55721,5.08233 5.59584,5.08233 0.0386,0 2.68609,-2.75975 5.88323,-6.13277 5.73696,-6.05257 10.1513,-10.32367 11.32083,-10.95351 0.54322,-0.29254 0.64444,-0.29803 1.07169,-0.0582 0.55914,0.31384 1.16714,1.44511 1.5661,2.91397 0.38859,1.43068 0.53497,6.3586 0.26618,8.96083 -0.58854,5.69773 -2.09169,10.36168 -4.49008,13.93176 -4.46947,6.65293 -15.31153,18.93339 -16.69498,18.90986 -0.16954,-0.003 -0.86896,-0.51343 -1.55427,-1.13454 z"
     id="path14"
     transform="scale(0.75)" />
  <path
     style="opacity:0.97;fill:#ffffff;stroke:#223648;stroke-width:0.126336;stroke-opacity:0.491604"
     d="m 246.11448,360.31552 c -1.13429,-0.19807 -1.65303,-3.16554 -2.1864,-12.50737 -0.31827,-5.57433 -0.3173,-18.51734 0.001,-19.44544 0.35719,-1.04002 0.96684,-1.76411 2.1775,-2.58626 1.94131,-1.31832 7.9751,-4.04041 11.1422,-5.0267 0.79778,-0.24845 1.10354,-0.27299 1.44766,-0.11619 0.66642,0.30364 2.21959,2.50033 3.77752,5.34267 2.54618,4.64532 5.06761,8.55898 8.37098,12.99308 2.22393,2.98518 3.65043,5.02274 4.28269,6.11722 l 0.47018,0.81392 -0.84138,0.78522 c -3.06391,2.85939 -16.11645,9.85206 -23.30975,12.48777 -2.29619,0.84136 -4.43346,1.29909 -5.33264,1.14208 z"
     id="path15"
     transform="scale(0.75)" />
  <path
     style="opacity:0.97;fill:#ffffff;stroke:#223648;stroke-width:0.126336;stroke-opacity:0.491604"
     d="m 285.02263,388.95292 c -3.05862,-3.40898 -5.09455,-6.05589 -7.58043,-9.8553 -4.15324,-6.34777 -7.2867,-12.92413 -7.88542,-16.54952 -0.19561,-1.18446 -0.18787,-1.23635 0.34607,-2.32094 1.23527,-2.50919 5.62679,-6.58626 9.49272,-8.81299 1.36835,-0.78816 1.66603,-0.71743 4.14735,0.98544 1.20042,0.82382 2.44878,1.58571 2.77413,1.69308 0.81706,0.26966 1.54635,-10e-4 2.7284,-1.01361 0.5262,-0.45065 1.38311,-1.01542 1.90426,-1.25505 0.87939,-0.40436 0.99981,-0.41845 1.67418,-0.19589 1.71814,0.56704 6.62985,4.05189 9.08247,6.444 l 1.64245,1.60193 v 1.07414 c 0,3.92884 -5.58093,15.49703 -11.28303,23.38755 -1.18393,1.63831 -5.36872,6.18718 -5.69197,6.18718 -0.0671,0 -0.67511,-0.6165 -1.35118,-1.37002 z"
     id="path16"
     transform="scale(0.75)" />
  <path
     style="opacity:0.97;fill:#ffffff;stroke:#223648;stroke-width:0.126336;stroke-opacity:0.491604"
     d="m 324.12007,360.10669 c -2.98965,-0.80828 -6.15146,-2.20397 -13.78858,-6.08659 -5.67982,-2.88754 -9.51183,-5.03798 -10.52899,-5.90863 -1.95963,-1.67737 -1.61211,-3.06145 2.10901,-8.3995 2.11273,-3.03077 4.67701,-7.11696 7.01127,-11.17248 0.95135,-1.65286 2.16173,-3.66458 2.68975,-4.47047 1.18001,-1.80103 2.79296,-3.57287 3.25247,-3.57287 1.06513,0 7.24801,2.94216 10.0517,4.78316 2.74458,1.80219 3.68854,3.02494 4.10617,5.3189 0.26889,1.47698 0.25715,12.05992 -0.0183,16.50283 -0.4327,6.9791 -0.96582,10.97183 -1.60255,12.00208 -0.80543,1.30322 -1.44744,1.49954 -3.28195,1.00357 z"
     id="path17"
     transform="scale(0.75)" />
  <path
     style="opacity:0.97;fill:#ffffff;stroke:#223648;stroke-width:0.126336;stroke-opacity:0.491604"
     d="m 347.4546,321.43633 c -3.34913,-0.0881 -7.58775,-0.43444 -9.47501,-0.77427 -5.3624,-0.96559 -13.76612,-3.50221 -17.21828,-5.19724 -4.03367,-1.98058 -5.28292,-3.68595 -6.71072,-9.16095 -0.81064,-3.10845 -1.26489,-4.3608 -2.83516,-7.81642 -1.5388,-3.38638 -1.79318,-4.41003 -1.50819,-6.06931 0.34,-1.97963 2.93422,-8.06976 4.33899,-10.18615 0.77729,-1.17104 1.35576,-1.52743 2.11889,-1.30543 0.29168,0.0849 2.47929,0.54673 4.86136,1.02639 6.65097,1.33926 14.33597,2.5783 21.54187,3.47317 l 0.77061,0.0957 1.20578,2.52551 c 1.56322,3.2742 2.01704,4.35653 2.84623,6.78806 2.01118,5.89764 4.09429,14.62682 4.82857,20.23393 0.15025,1.1474 0.27319,3.07647 0.27319,4.28683 v 2.20066 l -1.63518,-0.037 c -0.89935,-0.0204 -2.43068,-0.0579 -3.40295,-0.0835 z"
     id="path18"
     transform="scale(0.75)" />
  <path
     style="opacity:0.97;fill:#ffffff;stroke:#223648;stroke-width:0.126336;stroke-opacity:0.491604"
     d="m 337.389,278.93682 c -8.29183,-0.55949 -15.91493,-2.18003 -22.10122,-4.69834 -13.30523,-5.41628 -21.03106,-15.15804 -23.80239,-30.01325 -0.46031,-2.46737 -0.66677,-7.60216 -0.33762,-8.39679 0.27125,-0.65487 0.85965,-1.02968 2.92026,-1.86024 6.93268,-2.79431 17.55952,-3.45875 26.6049,-1.66346 2.6184,0.5197 4.90368,1.27881 7.15945,2.37819 3.86514,1.88374 6.83251,4.19681 11.58652,9.03171 6.86777,6.98464 11.22919,13.14127 15.634,22.06912 3.72333,7.54662 4.82699,10.96602 3.7596,11.64812 -0.56581,0.36157 -2.08621,0.78228 -3.93328,1.08838 -3.03992,0.50379 -12.76491,0.73541 -17.49022,0.41656 z"
     id="path19"
     transform="scale(0.75)" />
  <path
     style="opacity:0.97;fill:#ffffff;stroke:#223648;stroke-width:0.126336;stroke-opacity:0.491604"
     d="m 283.68252,230.32947 c -0.68546,-0.0946 -2.52829,-0.66259 -4.33103,-1.33498 -1.72585,-0.64372 -3.9334,-1.44674 -4.90567,-1.78449 -2.9953,-1.04052 -3.58821,-1.52384 -2.98976,-2.43719 0.4519,-0.68969 2.97676,-2.5058 5.36693,-3.8604 l 2.13064,-1.2075 v -19.60795 -19.60795 h 7.68978 7.68979 v 19.25062 19.25062 l 3.55544,2.97905 c 1.9555,1.63847 3.71976,3.10941 3.9206,3.26874 0.36014,0.28571 0.35562,0.29453 -0.32927,0.64197 -0.88908,0.45102 -7.32318,2.87038 -9.19277,3.45668 -2.9269,0.91786 -6.31449,1.3087 -8.60468,0.99278 z"
     id="path20"
     transform="scale(0.75)" />
  <path
     style="opacity:0.97;fill:#ffffff;stroke:#223648;stroke-width:0.126336;stroke-opacity:0.491604"
     d="m 223.35735,278.84553 c -5.72653,-0.60362 -7.16292,-0.8362 -8.70625,-1.40972 -0.72793,-0.27051 -0.7513,-0.30341 -0.7513,-1.05795 0,-3.63193 7.56896,-18.58461 12.4977,-24.68952 2.97451,-3.68433 8.38025,-9.28588 11.63232,-12.05365 1.7556,-1.49416 5.87354,-4.23556 7.83981,-5.21913 4.31526,-2.15859 9.8187,-3.18609 17.0857,-3.18994 4.80114,-0.003 8.50666,0.49586 11.75565,1.58119 2.61962,0.87508 6.74209,2.74011 7.24866,3.27933 0.55483,0.59059 0.61821,1.59444 0.2746,4.34936 -0.95333,7.6435 -3.10233,13.98402 -6.46432,19.07269 -1.98428,3.00339 -4.80464,6.09637 -7.59967,8.33429 -7.45526,5.96923 -17.994,9.72066 -30.22882,10.7604 -2.26622,0.19258 -13.31503,0.37642 -14.58408,0.24265 z"
     id="path21"
     transform="scale(0.75)" />
  <path
     style="opacity:0.97;fill:#ffffff;stroke:#223648;stroke-width:0.126336;stroke-opacity:0.491604"
     d="m 284.41252,308.33826 c -4.28798,-4.44756 -9.97058,-11.19206 -12.61923,-14.97733 -3.53711,-5.05504 -7.15858,-12.09857 -7.15858,-13.92303 0,-0.99768 2.36724,-3.75147 5.74525,-6.6834 3.13842,-2.72399 6.69818,-6.35848 8.2652,-8.43872 2.84608,-3.7782 4.52322,-6.9709 6.30734,-12.007 0.62563,-1.766 1.1947,-3.17556 1.26461,-3.13236 0.0699,0.0432 1.23704,2.32586 2.59363,5.07258 1.58352,3.20617 2.9761,5.75345 3.88991,7.11534 4.65617,6.93932 12.35517,14.6128 15.1021,15.05205 0.5274,0.0843 0.70151,0.20445 0.78635,0.54249 0.18012,0.71763 -0.0489,2.54009 -0.4728,3.76251 -0.87692,2.52883 -3.64262,7.59846 -6.41321,11.75565 -3.59837,5.39926 -6.42782,8.82182 -12.62447,15.27081 l -2.61325,2.71965 z"
     id="path22"
     transform="scale(0.75)" />
  <path
     style="opacity:0.97;fill:#ffffff;stroke:#223648;stroke-width:0.126336;stroke-opacity:0.491604"
     d="m 220.31453,318.76723 c 0.17325,-6.88363 1.20885,-13.50725 3.14943,-20.14358 1.5553,-5.31879 3.90594,-10.54412 5.58924,-12.42457 1.23676,-1.3816 2.13548,-1.64796 7.47402,-2.21513 3.34613,-0.35549 5.82421,-0.77925 11.31371,-1.93469 6.02699,-1.26858 6.51911,-1.34962 8.22424,-1.35437 1.73888,-0.005 2.42978,0.26352 3.37663,1.31157 0.6917,0.76563 1.94944,3.29727 3.35757,6.75827 l 0.86307,2.12132 -0.0105,2.38649 c -0.0116,2.64559 0.008,2.57159 -1.82463,7.01705 -0.99925,2.42442 -1.6404,4.64866 -2.05382,7.12508 -0.35968,2.15445 -0.89872,3.88043 -1.51576,4.85341 -1.77356,2.79662 -9.25126,6.27263 -17.49907,8.13447 -3.21773,0.72636 -7.3303,1.2493 -14.57289,1.85306 -2.33345,0.19452 -4.63182,0.39288 -5.10749,0.44081 l -0.86485,0.0871 z"
     id="path23"
     transform="scale(0.75)" />
  <path
     style="opacity:0.97;fill:#ffffff;stroke:#223648;stroke-width:0.126336;stroke-opacity:0.491604"
     d="m 245.94501,360.00223 c -1.04653,-0.73302 -1.66038,-5.85618 -2.01178,-16.79028 -0.22362,-6.95804 -0.0758,-14.18885 0.30898,-15.1144 0.61139,-1.47062 2.75175,-2.90616 7.39942,-4.96281 2.67467,-1.18357 6.10223,-2.46181 6.60125,-2.46181 0.73426,0 2.04273,1.80861 4.79593,6.62912 2.25997,3.95693 4.73638,7.74001 7.86664,12.01742 1.32872,1.81567 2.89508,4.03088 3.48078,4.92268 l 1.06492,1.62145 -0.76783,0.66826 c -4.23312,3.68414 -19.96773,11.80524 -25.56034,13.19244 -2.10032,0.52097 -2.74987,0.57778 -3.17797,0.27793 z"
     id="path24"
     transform="scale(0.75)" />
</svg>
